<?xml version="1.0" encoding="utf-8"?>
<svg version="1.1" id="Mario" xmlns="http://www.w3.org/2000/svg" xmlns:xlink="http://www.w3.org/1999/xlink" x="0px" y="0px"
	 viewBox="0 0 617.3 574" style="enable-background:new 0 0 617.3 574;" xml:space="preserve">
<path d="M617.2,314.2c2.3-68.4-22.1-133.5-68.8-183.5c-2.5-2.6-5-5.2-7.5-7.7c-0.8-2.8-1.7-5.7-2.6-8.7c-9-28.8-15-46.4-39.5-73.7
	C472.8,11.6,444.3-0.6,417,0c-22,0.5-42.2,10-57.1,23.9C350.7,32.5,345,40.9,342,46c-22.6-9.8-45.1-10.2-58.7-4.2
	c-8.3,3.7-13.9,7.6-19.9,16.3c-2.8,4-4.9,8.4-6.4,13.3c-25.6,11.4-49.5,27.2-70.6,46.9c-2.8,2.6-5.6,5.4-8.3,8.1
	c-1.5-2.5-2.9-5.1-4.5-7.8c-15.4-26.2-41.3-67.7-54.8-76.4c-13.4-8.7-25.7-7.7-33.2-3c-7.5,4.7-17.1,13.9-13.1,39
	c0.9,5.5,2.4,11.3,4.3,17c-8.4,1.8-18.2,7.2-23.2,19.7c-1.3,3.2-2,6.6-2.2,10c-6.9-0.2-16.8,1.6-24.5,11.4
	c-4.7,6-12.2,18.8-7.4,37.5c-7.4,3-16,10.1-18.9,24.5c-4.8,24,17.3,43.1,37.2,48.7c0.5,0.2,1.1,0.3,1.6,0.4
	C49,267,67.4,283.6,89,283.8c-0.1,6.1,1.2,14.9,7.7,22.1c2.2,2.5,5.1,4.5,8.5,6C107.7,413.9,170.5,502,260,540.7
	c21.2,21.7,55,31.8,78.2,26.4c5.9-1.4,10.8-3.2,15-5.4c3.3,5.3,9,10.4,17.6,11.9c5.6,1,19.7,1.9,31.5-16.9
	c86.1,19.2,115.9-8.5,124.3-21.7c6.8-10.7,8.3-24.2,5.2-38.8C582.1,451.3,614.7,386.7,617.2,314.2 M352.5,51.3
	c7.3-11.1,27.1-35.2,62.9-35c46.5,0.3,86.4,39.6,104.6,91.3c18.8,53.3,23.2,104.6,25.6,134.8c1,12.6,1,16.6,3,16.3
	c2-0.3,7.2-7.8,8.1-28.1c0-0.2,0-0.5,0-0.7c7.7,5,24.2,18.6,26.9,45.5c2.7,27.3-21.7,35-32.9,37.1c-2.3-7.2-6.2-13.7-11.8-18.3
	c-7.8-6.5-16.9-9.2-25.9-9.3c-3.1-14.2-11.6-46.1-31.3-91.3c-9.6-22-24.7-43.9-41.4-63.8c6.2-4.5,16.5-14.3,20.3-31.1
	c3.1-13.7,0.7-32.3-8.6-46.2c-9.6-14.3-23-23.7-40.2-23.9c-28.8-0.4-43,18.2-48.9,29.3C359,55.3,355.5,53,352.5,51.3 M541.5,336.1
	c-2.7,18.3-20.3,39.9-47.1,46.2c-26.9,6.3-43.2-3.3-43.2-3.3c-7.7,8.5-17.8,12.9-24.8,15c-20.2-4.8-40.2-3.5-58.2,3.9
	c-9.9,4-17.5,8.3-23.4,12.4c-9.4,0.8-26.8,1.1-40.2-6.2c-19.7-10.6-28.3-31.9-29.3-34.5l-1-3.1l-3.3-2.7
	c-26.6-20.8-33.5-43.5-35.1-56.4c3.3-0.8,5.5-2.1,5.5-2.1s5,20.6,20.6,21.3c15.6,0.7,18.9-9,18.9-9s5.1,11.4,16.7,15.3
	c-15.5-1.1-21.4-4.2-22.1-3.3c-1.2,1.5,1.5,5.2,5.5,7.7c4,2.5,8.5,2.7,8.5,2.7c7.7,27.4,23.7,47.1,39.4,49.1
	c13.4,1.7,24.2-1.2,34.4-20.7c10.2-19.4,8-42.6,6.2-43.3c-1.7-0.8-16.2,5.7-48.8,7.7c-2.3,0.1-4.5,0.2-6.6,0.3
	c14.2-3.8,19.4-15.9,19.4-15.9c6.3,5.3,14.9,11.6,29.9,8c15-3.7,20.9-17.3,20.9-17.3c9.6,4,22.9,5,34.5-7c11.6-12,6-33.9,5-37.2
	c-1-3.3-2.7-4.3-4.7-3.3c-2,1-21.8,9.1-41.2,11.1c-12.8,1.3-24.4,1.3-30.9,1.1c1.4-3.1,2.4-6.2,2.9-9.3l-11.8-1.8
	c-1.2,7.5-7.2,15.8-16.1,22.2c-13.9,10-32,13.9-49.7,10.9c-34.6-6-52.8-24.4-52.8-53.4c0-13.5,6.8-26.9,18.3-35.6
	c11.9-9.1,26.8-11.9,41.9-7.9c34.1,9.1,49.4,37.6,49.6,37.8l10.6-5.5c-0.3-0.6-3.7-6.5-10.3-14c2.9-4.9,7-13.7,9-25.9
	c2.1-12.7-1.1-19.4-3.9-22.9c-2.4-3-5.7-4.8-9.1-5c-5.8-0.4-22,3.7-29.2,28.9c-1.6-0.7-3.3-1.5-5-2.1c2.3-7.2,7.1-21,14-35.9
	c3.6-3.7,9.9-7.8,19.3-5.7c15.7,3.5,18.7,20.9,19.8,19c1.2-2.2,3.3-10.7-0.8-25c6.9-0.2,14.6-0.1,22.9,0.8c8.9,0.9,15.8,2.5,20.9,4
	c1.6,2.1,3.3,4.2,4.8,6.2c-11.6,8.7-17.9,19.4-16.8,20.1c0.5,0.4,12-6.6,26.8-7.1c14.6,19.6,22,36.3,44.1,47.2
	c14.6,7.2,26.6,7.1,33.5,6.1c2.4,6,4.5,11.7,6.4,17c-2,3-5.1,6.5-9.8,9.5c-10.6,7-27.2,5.6-38.2,16.6c-11.6,11.6-3.6,25.2-3.6,25.2
	c-7.3,6.6-15,21.6-6.3,32.9c8.6,11.3,21.6,8.9,38.6-5c12.7-10.4,20.9-14.1,31.9-17.2c7.2-2,14.2-1.7,19.7-0.5
	C536.3,301.2,544.2,317.8,541.5,336.1 M491.7,395.5c2.3,2,4.8,5,3.7,8.4c-1.8,5.4-15.2,8.4-26.2,9.3c-8.7-5.9-17.6-10.6-26.5-14.1
	c8.5-4,10.8-8.2,10.8-8.2C466.6,397,479.6,397.8,491.7,395.5 M373.5,409.3c9.8-4,20.2-5.7,31.1-5.3c-6.6,2.3-15.1,6.9-22.8,16.4
	c-5.7,7.1-9.1,13.9-11,18.8c-2.3,1.6-4.2,3.4-5.7,5.2c-6.6-6.1-14.2-10.9-22.8-14.5C346.9,424.7,356.1,416.4,373.5,409.3
	 M294.5,412.5c13.1,8,26.8,9.9,36.3,10c-0.9,1.1-1.7,2-2.3,2.9c-1.4-0.3-2.8-0.7-4.2-0.9c-25.7-5.2-55.5,4-55.5,4s-3.9-1-9.4-1.2
	c4-7.4,11.8-18.4,24.4-23.3C287,407.1,290.6,410.1,294.5,412.5 M207.3,263.1c-5.3,12.9,7.9,16.5,7.9,16.5
	c-1.3,6.6-1.3,20.4,7.8,25.8c0.8,13.5,5.5,41.3,39.4,66.1c0.3,0.6,0.6,1.3,0.9,2.1c-14,5.2-27.3,12.8-38.6,20.6
	c-32.6-33.2-64.3-67.5-78.4-82.9c5.4-1.9,10.9-4.4,16.1-7.7C178.8,293.3,196,277.5,207.3,263.1 M360.5,344.7
	c-6.1,1.7-16.4,4.3-26.2,5.3c-15.4,1.5-29.6,1.2-31.9,0c-1.5-0.8-3-5-3.8-7.7c2.3,0.2,33.4,3.1,62.4-6.2
	C360.9,336,361.1,339.5,360.5,344.7 M318.1,357.9c18.6,0.5,33.3-2.6,40.7-4.6c-1,3.6-2.4,7.4-4.4,11.3
	c-7.5,14.4-15.7,16.2-23.9,15.9c-5.5-0.2-11-2.7-16.2-8.1C313.9,362.7,318.1,357.9,318.1,357.9 M332.4,189.8
	c-3.4-5.6-9.9-3.1-14,2.6c-1.8,2.5-3.3,5.8-4.3,9.2c-1.2-0.9-2.4-1.8-3.7-2.7c1.2-4,3.8-10.9,8.7-15.6c3.2-3.1,6.6-4.3,9.6-3.6
	c1.8,0.4,3.2,1.6,4.3,3.2c0,1.9-0.2,3.9-0.5,6.1C332.5,189.3,332.4,189.6,332.4,189.8 M326,193.7c1.8,0.4,2.8,3,2.2,5.8
	c-0.6,2.8-2.6,4.8-4.4,4.4c-1.8-0.4-2.8-3-2.1-5.9C322.3,195.3,324.2,193.3,326,193.7 M332.7,178.4c-1-0.7-2.1-1.2-3.3-1.5
	c-4-1-8.4,0.6-12.4,4.4c-5.1,4.8-7.9,11.6-9.2,16c-1.7-1.1-3.4-2.1-5.2-3.1c5.6-21,17.7-24.9,21-25c1.8,0,4.9,0.4,6.5,2.4
	C331.4,173.2,332.3,175.6,332.7,178.4 M447.6,285.9c0,0-6.3-5.3-1-15.3c6.3-11.8,17.3-6,31.2-13.6c6.2-3.4,10.1-6.6,12.6-9.2
	c5.8,17.9,8.7,30.9,10.1,38.4c-7.5,1.6-14.4,4.7-20,8.2c-7.8,4.9-17.4,13.7-25.3,18.4c-7.9,4.7-14.8,5.3-17.6-1.7
	C431,294.8,447.6,285.9,447.6,285.9 M440,109.7c0,0-1.1-12.3-5-31.9c-3.6-18.6-4.7-30.4-5.6-29.9c-1,0.5-23.2,16.6-23.2,16.6
	c-1.5,0-3.5-22.3-4.3-21.6c-12.1,10-22.5,20.9-26,24.7c-3-2.3-5.8-4.5-8.5-6.4c4-7.6,17-26.8,43-26.6c20.5,0.2,32.7,14.4,38,24.3
	c6.6,12.3,7.8,25.9,5,38.5c-3.6,16.1-12.2,24.5-16.8,28c-3.5-4.1-7.2-8.1-10.8-11.9C429.7,112.8,435.3,111.7,440,109.7 M419.8,66.5
	c0,0-0.3,18.2,0.4,41.2c-12.2-12.5-24.5-23.7-35.6-33c2.3-3,5.9-7.4,9.9-11.2c0,0,1,10,3.3,19.3L419.8,66.5 M268.2,99.5
	c-0.8-14.2,2.1-23.7,7.1-31c3.3-4.7,9.2-9.8,15.9-12.3c14.3-5.3,35.7-2.8,54.3,7c28.9,15.1,99.9,75.6,126.5,136.8
	c1.1,2.6,2.2,5.1,3.2,7.6c-6.6,0-17-0.9-26.3-5.5c-10.5-5.1-26-25.1-33.4-35.2c1.3,0.4,2.7,0.8,4,1.3c19.4,7.5,18.2,19.2,19.4,19.9
	c1.2,0.8,5.8-10.5,4.7-25.7c-1-13.7-21.7-24.2-37.9-17.9c-2,0.8-3.9,1.7-5.7,2.6c-40.6-61.6-75.3-70.6-78.5-70.9
	c-3.2-0.3,15.2,10,29.4,25.6c7.4,8.2,16.1,18.8,25,30c-4.4-1.2-10.3-2.2-18.3-2.6c-7.3-0.4-14.2-0.4-20.6,0
	c-8.3-9.7-21.7-11.7-31.7-3.2c-8.9,7.6-10.5,18.7-10.6,24.9c-0.7,1.6-1.4,3.3-2.2,5.2C278.2,140.5,269.3,120.3,268.2,99.5
	 M185.1,139.3c3.5-3.7,7-7.3,10.8-10.8c17.6-16.5,37.3-30,58.3-40.4c-0.2,3.8-0.2,7.8,0.1,12.1c1.4,26.2,13.4,51.5,33,69.9
	c-1.8,4.8-3.8,10-5.7,15.4c-0.1,0-0.2-0.1-0.3-0.1c-18.8-5-37.4-1.5-52.3,9.9c-4.5,3.4-8.4,7.5-11.7,11.9c-4.5-6-10.9-8.8-16.3-9.7
	c0.4-4.3,0.3-9.2-0.5-15C198.6,169.1,193.5,155.5,185.1,139.3 M69.2,152c-3.6-8.8-6.5-21.2-2.7-31.8c3.2-8.8,10.7-10.9,15.5-11.4
	c5.4,12.5,11.9,23.7,16.5,30.5c-6.3,1.3-12.9,3.4-19,6.3C75.8,147.4,72.3,149.6,69.2,152 M43.9,193.5c-14-18.4-14-38.7-5.8-48.1
	c5-5.8,11-6.5,14.5-6.3c1.8,8.5,5.1,16.3,7.8,21.8c-0.8,1.2-1.6,2.4-2.3,3.6c-7.2,13.5-3.6,30.9,14.3,38.6c1.8,0.8,3.6,1.4,5.3,2
	c-1.9,1.1-4.2,1.8-6.7,2.1C66.5,207.9,54.7,207.7,43.9,193.5 M64.1,234.6c-4.6,4-11.6,4.8-18.6,3.3c-17.3-3.7-34.2-21.6-31.1-36.7
	c1.9-9.3,6.8-12.9,10.2-14.2c2.3,4.4,5.1,9,8.9,13.9c10.3,13.5,22.4,20,36.4,18.8C69.9,226,67.9,231.2,64.1,234.6 M107.1,296.6
	c-4.1-4.6-4.3-10.8-4.1-14.3c16.6-3.4,24-11.1,23.5-12.7c-0.5-2-26.1,6.7-47.8-1.2c-15.5-5.7-21.8-14.7-24.2-19.4
	c7-0.4,13.6-2.3,18.2-6.3c7.6-6.6,9.8-14.1,8.8-25.4c5.1-1.8,9.4-4.5,12-8.3c7.1,0.9,11.6,0.4,11.6,0.4
	c1.2,16.7,13.8,21.5,14.3,20.3c0.5-1.2-4.2-7.2-4.2-15.9c0-8.7,2.3-14.2,2.3-14.2c-15.2,0-45.8,0-47.8-18.9c-2-18.9,23.8-32,49.4-32
	c22.4,0,30.4,6.5,31.1,5.5c0.3-0.4-1.1-4-3.9-6.4c-3.4-2.9-12.5-9-32.1-9.9c-3.6-5.7-10-16.1-16.7-29c-10.5-19.9-11.9-33.4-11-44.3
	c1-11,12.5-16.9,19.7-13c7.2,4,20.2,17.9,40.3,50.8c20.2,32.9,37.1,63.7,40.5,83.6c3,17.3-1.2,32-2.4,35.4c-1.2,3.5,2.5,3,6.5-1.2
	c1.6-1.7,3.9-4.4,5.9-8.4c3.8,0.6,9.3,2.9,12,11c-2,5.8-3.1,11.8-3.1,17.9c0,0.1,0,0.2,0,0.3c-6.3,13.2-27.3,36.2-49,49.7
	C136.1,303.6,112.8,302.9,107.1,296.6 M180.1,424.4c-11.2,5.1-17.2,11.4-20.2,15.4c-24.1-36-38.8-78.8-40.6-124.6
	c3.6,0.3,7.5,0.1,11.4-0.3c9.4,10.3,45.3,49.4,82.6,87.5c-10.5,8.1-18.3,15.3-22.2,19.1C187.7,421.8,184,422.6,180.1,424.4
	 M201.5,458.8c-3.3,8.1-8.5,13.8-12.1,17.1c-1.9-1.9-3.8-3.9-5.6-5.8c12.5-8.6,14.4-18.5,14.2-19c-0.3-0.5-2,0.3-7.2,6
	c-3.3,3.6-8.3,6.3-11.7,7.8c-3.9-4.4-7.5-8.9-11-13.6c1.6-1.9,3.8-4.2,6.8-6.7c14.3-12.4,24.9-10.5,28.1-7.2
	C206.2,440.6,207,445.3,201.5,458.8 M211.7,470.2c-4.5,7.4-5.3,15.8-5.2,21.3c-3.8-3.2-7.5-6.5-11.1-9.9
	c20.8-20.4,20.7-42.8,18.1-48.5c-0.8-1.9-2.6-4.2-5.2-6.2c11.2-11.1,34.7-31.8,61.4-41.4c2.2,3.6,4.7,7.4,7.6,11.1
	c-18.2,7.6-29,24.2-33.3,32.4c-4,1.2-8,3.3-11.5,6.4c-10.4,9.3-11.4,19.3-11.3,24.1C217.8,462.1,214.5,465.6,211.7,470.2 M398.5,454
	c6.5,9.4,11.2,30.8,4.9,62.9c-6.9,35-20,45.6-30,43.8c-4.7-0.8-7.4-4.5-8.8-7.3c6-6.2,8.6-13.1,9.3-18.7c1.2-10.7-0.8-7.5-3.7-2
	c-3,5.5-19.2,20.4-37.1,20.2c-17.9-0.3-34.9-2-60-21.7c-25.2-19.7-30.4-41.4-32.6-40.8c-0.8,0.2-2.5,11.7,4.1,27.1
	c-9.5-5.3-18.6-11.1-27.3-17.5c-0.3-7,0.2-17.4,4.7-25.5c7.5-13.4,25.9-16.7,29.6-16.4c3.7,0.2,2.3-1.5-2.2-4.5
	c-2.1-1.4-7.8-2.3-14.5-0.8c0.6-3.6,2.8-8.7,10.2-12.4c10-5,21.4-3,21.4-3s31.6-8.5,57-2.2c25.4,6.2,41.6,20.4,47.3,27.1
	c5.7,6.7,9.6,11.3,10,10c0.5-1.6,2.2-6.9-7-18.5c1.8-2.7,6.4-7.5,16-5.9C392.9,448.3,396,450.5,398.5,454 M477.5,437.2
	c34.4,30.8,49.7,68.6,36.3,89.7c-13.8,21.8-52.8,27.9-105.1,16.9c2.6-6.6,4.9-14.4,6.8-24.1c4.1-21.2,5-40.8,1.7-56
	c5.6-0.1,15.1,0,23.8,1.1c13.6,1.7,19.9,2.7,20.3,1.3c0.3-1.3-10.5-16.1-49.3-16.9c-0.6-1.1-1.3-2.2-2-3.3
	c-4.6-6.6-10.3-10.1-17.2-11.2c-3-0.5-5.7-0.6-8.2-0.4c2-4.8,5.9-11.4,13.2-17c7.7-6,17-9.4,23.5-11.2
	C440.2,410.7,459.5,421.2,477.5,437.2 M548.5,152c37.4,45.5,56.7,102.3,54.7,161.7c-2.2,66.3-31.1,125.6-76,167.8
	c-7.4-18.3-21.3-37.5-40.4-54.7c-1.3-1.2-2.6-2.3-3.9-3.4c9.6-1.1,21.3-4.7,24.9-15.5c2.2-6.5-0.1-11.9-3.7-16.1
	c17.6-6.7,32-19.3,39.4-29.2c6.9-9.2,10.3-22.4,9.8-35.2c11.8-4.6,40.1-18.5,43.2-48c3.5-33-24.5-59.4-39.6-64.8
	C556.6,199,554.7,178.8,548.5,152 M418.4,189.3c-3-6.4-7.8-11-14-13.1c-6.6-2.3-14.7-1.2-21.9,2.5c-10.3,5.3-17.8,15.9-21.6,29.2
	c-9.7,34.1,1.3,46.1,12.1,50.6c5.1,2.1,12.9,3.9,21.3,0.3c9.1-3.9,16.6-13.2,22-27.6C422.7,214.9,423.4,200,418.4,189.3 M401,216.1
	c2.3,0.5,3.6,3.7,2.8,7.1c-0.7,3.4-3.2,5.8-5.6,5.3c-2.3-0.5-3.6-3.7-2.8-7.1C396.2,217.9,398.7,215.6,401,216.1 M413.8,211.8
	c-0.3,2.6-0.8,5.3-1.6,8c-3-15.2-14.1-14.6-21.2-7c-7.3,8-9.6,22.2-6.9,32.2c1.2,4.3,3.1,6.5,5.1,7.6c-2.8,0.8-5.5,0.8-8,0.4
	c-3.3-2.2-6.6-7-6.6-18.6c0-17.8,9.7-32.2,19.1-35.8c3.3-1.3,8.2-2.3,12.5,0.2C409.9,201.1,412.5,205.5,413.8,211.8 M414.1,203.5
	c-1.6-3.2-3.8-5.7-6.4-7.2c-4.2-2.5-9.4-2.6-15.1-0.4c-10.3,4-21,19.5-21,38.6c0,8.1,1.5,13.3,3.8,16.8
	c-13.7-6.4-11.9-25.9-7.4-41.5c3.2-11.1,9.7-20,18-24.3c5.3-2.8,11.3-3.7,16-2.1c4.1,1.4,7.5,4.6,9.6,9.1
	C413.1,195.7,413.9,199.4,414.1,203.5 M511.3,322.1c1.5-2.3-25.2-9.6-40.5,12c-15.3,21.6,2.7,33.9,4.6,32.5c1.6-1-3.6-5.4-0.9-16
	c2-2,5-4.3,9.2-6.2c9.6-4.3,14.3-1,14.6-3.3c0.3-2-7.3-7.3-17.6-3.8C491.5,322.6,509.1,325.6,511.3,322.1 M323.1,477.9
	c0-1-5.6-4.3-15-4.7c-9.3-0.3-13.6,3.3-13,8c0.7,4.7,6.3,5,13.6,3.6C316.1,483.5,323.1,478.5,323.1,477.9 M330.6,461.9
	c1-1.3-5.9-7.9-15.2-11.2c-9.3-3.3-14.9-0.7-13.9,5.3C302.5,461.9,329.9,462.9,330.6,461.9 M341.4,453.6c0.8-0.4-4-8.5-9.3-12.2
	c-5.3-3.7-10-2.6-10.7-0.9c-0.9,2.2,3.1,5.1,9.4,8.2C337.2,451.8,340.3,454.1,341.4,453.6"/>
</svg>